<svg xmlns="http://www.w3.org/2000/svg" viewBox="0 0 412 120" width="412" height="120" role="img" aria-label="Nando Muiño · Fisioterapia y Osteopatía"><title>Nando Muiño · Fisioterapia y Osteopatía</title><g transform="translate(0 0)"><path d="M104.6,39.9 A52,22 -34 1 1 70.9,29.7" fill="none" stroke="#EFE9DF" stroke-width="2.6" stroke-linecap="round"/><path d="M79.7,27 A52,22 -34 0 1 104.7,35.3" fill="none" stroke="#B5674A" stroke-width="2.6" stroke-linecap="round"/><rect x="-3.1" y="-2.1" width="6.2" height="4.2" rx="1.8" fill="#EFE9DF" transform="translate(60.3 19.5) rotate(27.6)"/><rect x="-3.8" y="-2.6" width="7.6" height="5.1" rx="2.1" fill="#EFE9DF" transform="translate(55.5 30.9) rotate(13.3)"/><rect x="-4.5" y="-3" width="8.9" height="6" rx="2.5" fill="#EFE9DF" transform="translate(56.2 43.1) rotate(-14.1)"/><rect x="-5.1" y="-3.5" width="10.2" height="6.9" rx="2.9" fill="#EFE9DF" transform="translate(60 56) rotate(-16.3)"/><rect x="-5.8" y="-3.9" width="11.6" height="7.8" rx="3.3" fill="#EFE9DF" transform="translate(64.7 67.8) rotate(-21.7)"/><rect x="-6.5" y="-4.3" width="12.9" height="8.7" rx="3.7" fill="#EFE9DF" transform="translate(66.7 81.2) rotate(7.9)"/><rect x="-7.2" y="-4.8" width="14.3" height="9.6" rx="4" fill="#EFE9DF" transform="translate(62 98) rotate(19.3)"/></g><path fill="#EFE9DF" transform="translate(134 66)" d="M11.3727138671875 -0.57959326171875Q11.3727138671875 -0.3250631103515625 11.179516113281249 -0.16559817504882812Q10.986318359375 -0.00613323974609375 10.587656372070313 0.0H2.3444473876953125Q1.945785400390625 -0.00613323974609375 1.7495210266113281 -0.16559817504882812Q1.5532566528320313 -0.3250631103515625 1.5532566528320313 -0.57959326171875Q1.5532566528320313 -1.0035546874999999 2.175783996582031 -1.23125244140625L3.57112060546875 -1.6237868041992187Q4.559352722167969 -1.954219482421875 5.03200454711914 -2.475170745849609Q5.504656372070312 -2.9961220092773435 5.504656372070312 -4.067156372070312V-26.187816284179686Q5.504656372070312 -26.72371319580078 5.3904242553710935 -27.05031066894531Q5.276192138671875 -27.376908142089842 4.783995788574218 -27.991004211425782L2.7415946655273435 -30.867545593261717Q2.5200301513671874 -31.188009826660156 2.412313812255859 -31.376225463867186Q2.3045974731445313 -31.56444110107422 2.3045974731445313 -31.726206176757813Q2.3045974731445313 -31.96233660888672 2.4767121276855466 -32.08116830444336Q2.6488267822265623 -32.2 2.9485904541015624 -32.2H8.229402526855468Q8.6426318359375 -32.2 8.918245788574218 -32.0213674621582Q9.193859741210938 -31.842734924316407 9.525057495117187 -31.372004211425782L27.448178100585938 -5.5659775390625L26.75665075683594 -4.0280588989257815V-28.132843627929688Q26.75665075683594 -29.196978271484376 26.293965270996093 -29.72636291503906Q25.831279785156248 -30.25574755859375 24.80164794921875 -30.57621319580078L23.00457080078125 -30.968747558593748Q22.382043457031248 -31.21484503173828 22.382043457031248 -31.62040673828125Q22.382043457031248 -31.89257012939453 22.578307830810544 -32.046285064697265Q22.774572204589845 -32.2 23.167100952148438 -32.2H31.410309936523436Q31.808971923828125 -32.2 32.005236297607425 -32.046285064697265Q32.20150067138672 -31.89257012939453 32.20150067138672 -31.62040673828125Q32.20150067138672 -31.20257855224609 31.578973327636717 -30.968747558593748L30.183636718749998 -30.57621319580078Q29.200771362304685 -30.274147277832032 28.72543615722656 -29.744762634277343Q28.250100952148436 -29.215377990722654 28.250100952148436 -28.132843627929688V-5.300718078613281Q28.250100952148436 -4.797021728515625 28.36088391113281 -4.437073974609374Q28.471666870117186 -4.077126220703125 28.69169842529297 -3.7581949462890623L30.197433349609373 -1.6023225708007813Q30.50793194580078 -1.1660904541015624 30.600315185546876 -0.9414579162597656Q30.692698425292967 -0.7168253784179688 30.692698425292967 -0.532060302734375Q30.692698425292967 -0.29592987060546877 30.515217010498045 -0.14796493530273438Q30.337735595703123 0.0 29.973572204589843 0.0H24.430569396972654Q23.72984149169922 0.0 23.72984149169922 -0.5857293090820312Q23.72984149169922 -0.84102734375 23.632092193603516 -1.0901928405761718Q23.534342895507812 -1.3393583374023437 23.136447387695313 -1.8691192016601563L5.569049072265625 -27.133890625L6.998106567382813 -27.894412353515623V-4.055656372070312Q6.998106567382813 -3.014521728515625 7.463858673095704 -2.4882037048339845Q7.929610778808594 -1.9618856811523437 8.931642333984374 -1.6237868041992187L10.7501865234375 -1.23125244140625Q11.3727138671875 -0.9974214477539063 11.3727138671875 -0.57959326171875Z M47.81467529296875 -2.5384270629882812V-2.875758056640625L47.51644317626953 -2.85198876953125V-16.69032958984375Q47.51644317626953 -18.517296630859374 46.680011199951174 -19.49441339111328Q45.843579223632815 -20.471530151367187 44.278047668457035 -20.471530151367187Q42.6987138671875 -20.471530151367187 41.90981414794922 -19.760062408447265Q41.12091442871094 -19.048594665527343 41.12091442871094 -18.128594665527345V-16.29932958984375Q41.12091442871094 -15.142431274414061 40.34389865112305 -14.45894775390625Q39.56688287353516 -13.775464233398438 38.25511920166016 -13.775464233398438Q37.19252313232422 -13.775464233398438 36.589924255371095 -14.348929870605469Q35.98732537841797 -14.9223955078125 35.98732537841797 -15.971194946289062Q35.98732537841797 -17.290626220703125 37.035740173339846 -18.549107635498046Q38.08415496826172 -19.807589050292968 40.11888497924805 -20.626387786865234Q42.153614990234374 -21.4451865234375 45.10527697753906 -21.4451865234375Q48.973106567382814 -21.4451865234375 50.866004882812504 -19.812954406738278Q52.758903198242194 -18.18072229003906 52.758903198242194 -15.3379228515625V-3.1954572143554687Q52.758903198242194 -2.4195890502929687 53.04295333862305 -2.0646220092773437Q53.327003479003906 -1.7096549682617188 53.794669677734376 -1.7096549682617188Q54.27613531494141 -1.7096549682617188 54.56095263671875 -1.9626549682617187Q54.84576995849609 -2.2156549682617186 54.97610235595703 -2.6020574951171875Q55.04893475341797 -2.7193569335937497 55.13556729125977 -2.791039611816406Q55.22219982910157 -2.8627222900390623 55.342565185546874 -2.8627222900390623Q55.51046350097657 -2.8627222900390623 55.58866265869141 -2.745040313720703Q55.666861816406254 -2.627358337402344 55.666861816406254 -2.418060302734375Q55.666861816406254 -1.84382958984375 55.23101293945313 -1.1699312744140624Q54.79516406250001 -0.496032958984375 53.8981654663086 -0.006900421142578134Q53.00116687011719 0.4822321166992187 51.605834472656255 0.4822321166992187Q49.775036437988284 0.4822321166992187 48.79485586547852 -0.32659957885742186Q47.81467529296875 -1.1354312744140624 47.81467529296875 -2.5384270629882812ZM34.927791015625004 -4.635263671875Q34.927791015625004 -7.264160583496094 37.207086944580084 -8.90827523803711Q39.486382873535156 -10.552389892578125 43.85791442871094 -10.552389892578125Q45.382047668457034 -10.552389892578125 46.51249542236329 -10.271406372070313Q47.64294317626953 -9.9904228515625 48.53764233398438 -9.558789611816406L48.22944458007812 -8.741532958984374Q47.37154486083985 -9.12639971923828 46.471095001220704 -9.359466339111329Q45.57064514160157 -9.592532958984375 44.48504486083985 -9.592532958984375Q42.483279785156256 -9.592532958984375 41.3819645690918 -8.496198455810546Q40.28064935302734 -7.399863952636719 40.28064935302734 -5.470928466796875Q40.28064935302734 -3.58109326171875 41.25316583251953 -2.567942138671875Q42.22568231201172 -1.554791015625 43.77204907226563 -1.554791015625Q45.007913024902344 -1.554791015625 46.17516091918945 -2.1179063720703124Q47.34240881347657 -2.681021728515625 48.14894036865235 -3.718319763183594L48.5200048828125 -3.003795227050781Q47.34240740966797 -1.3255645141601562 45.38012725830078 -0.4189828186035156Q43.41784710693359 0.487598876953125 41.191450195312505 0.487598876953125Q38.40692004394531 0.487598876953125 36.667355529785155 -0.9276669006347655Q34.927791015625004 -2.342932678222656 34.927791015625004 -4.635263671875Z M65.28471246337891 -20.49299578857422V-2.4272482299804685Q65.28471246337891 -1.9312180786132813 65.46296176147462 -1.6789859619140626Q65.64121105957031 -1.4267538452148438 66.00844317626954 -1.3263211669921875L67.13238006591797 -1.0955546875Q67.63224261474609 -0.9322566528320312 67.63224261474609 -0.555060302734375Q67.63224261474609 0.0 66.90851751708985 0.0H58.262049072265626Q57.91628680419922 0.0 57.741872009277344 -0.14451507568359376Q57.56745721435547 -0.2890301513671875 57.56745721435547 -0.53052734375Q57.56745721435547 -0.72372509765625 57.696255950927736 -0.8621069335937499Q57.8250546875 -1.0004887695312499 58.10565216064453 -1.0848211669921874L59.29858905029297 -1.3263211669921875Q59.671187927246095 -1.4267538452148438 59.84675384521485 -1.6759193420410157Q60.022319763183596 -1.9250848388671875 60.022319763183596 -2.4103814697265626V-17.585807861328124Q60.022319763183596 -17.945370971679687 59.89773736572266 -18.11211956787109Q59.77315496826172 -18.278868164062498 59.483356933593754 -18.30953436279297L57.97992144775391 -18.352467041015625Q57.71619073486328 -18.39539971923828 57.59965847778321 -18.518065216064453Q57.48312622070313 -18.640730712890626 57.48312622070313 -18.827028747558593Q57.48312622070313 -19.04859326171875 57.620741577148436 -19.181225097656252Q57.75835693359375 -19.31385693359375 58.102586242675784 -19.434988769531248L63.065236328125 -20.996690734863282Q63.58579803466797 -21.18298876953125 63.89054452514648 -21.258887786865234Q64.195291015625 -21.33478680419922 64.45978820800781 -21.33478680419922Q64.86918371582031 -21.33478680419922 65.07694808959961 -21.103639190673828Q65.28471246337891 -20.872491577148438 65.28471246337891 -20.49299578857422ZM64.73424822998047 -15.774167602539062 64.11018792724609 -16.41586114501953 64.99492004394531 -17.20169354248047Q67.5387152709961 -19.484056091308595 69.36951190185547 -20.465387786865236Q71.20030853271484 -21.446719482421873 72.86397192382813 -21.446719482421873Q75.35409954833985 -21.446719482421873 76.73524645996093 -19.81065707397461Q78.11639337158203 -18.174594665527344 78.47136041259766 -15.169263671875L80.00393054199219 -2.5391823120117185Q80.06833026123047 -1.9871851196289063 80.2507966003418 -1.6931693420410157Q80.43326293945313 -1.399153564453125 80.85032885742187 -1.2987208862304687L81.86999786376953 -1.0848211669921874Q82.15059533691407 -1.0058555297851561 82.27939407348633 -0.8674736938476562Q82.4081928100586 -0.7290918579101562 82.4081928100586 -0.53052734375Q82.4081928100586 -0.2890301513671875 82.23952801513673 -0.14451507568359376Q82.07086322021485 0.0 81.70286743164063 0.0H72.94369842529296Q72.20923980712891 0.0 72.20923980712891 -0.555060302734375Q72.20923980712891 -0.9215231323242188 72.71370263671875 -1.0955546875L73.88363952636719 -1.3263211669921875Q74.31757220458985 -1.4267538452148438 74.52227136230469 -1.7207696228027345Q74.72697052001953 -2.014785400390625 74.66257080078125 -2.5391823120117185L73.24730151367187 -14.49Q72.98356799316406 -16.592199157714845 72.19658587646484 -17.60879803466797Q71.40960375976563 -18.625396911621092 69.87703924560547 -18.625396911621092Q68.89570684814453 -18.625396911621092 67.85495895385742 -18.107514373779296Q66.81421105957031 -17.5896318359375 65.61438006591797 -16.543133239746094Z M99.59994317626953 -3.3196577758789063 99.50794458007812 -3.4415574951171872V-30.28182049560547Q99.50794458007812 -30.64138360595703 99.38336218261719 -30.808132202148435Q99.25877978515625 -30.974880798339843 98.96898175048828 -31.00554699707031L97.46554626464844 -31.048479675292967Q97.2018155517578 -31.091412353515626 97.08528329467774 -31.214077850341795Q96.96875103759766 -31.336743347167967 96.96875103759766 -31.523041381835938Q96.96875103759766 -31.74460589599609 97.10636639404296 -31.87723773193359Q97.24398175048827 -32.00986956787109 97.58821105957031 -32.1310014038086L102.55086114501952 -33.692703369140624Q103.07142285156249 -33.879001403808594 103.37616934204101 -33.95490042114258Q103.68091583251953 -34.03079943847656 103.94541302490234 -34.03079943847656Q104.35480853271484 -34.03079943847656 104.56257290649414 -33.79965182495117Q104.77033728027344 -33.56850421142578 104.77033728027344 -33.189008422851565V-2.4272482299804685Q104.77033728027344 -1.9312180786132813 104.94858657836915 -1.6759193420410157Q105.12683587646484 -1.42062060546875 105.49406799316407 -1.3263211669921875L106.63027136230468 -1.1016879272460938Q106.92773559570313 -1.0227222900390625 107.05960095214843 -0.8816570739746094Q107.19146630859375 -0.7405918579101562 107.19146630859375 -0.53052734375Q107.19146630859375 -0.2890301513671875 107.01666827392577 -0.14451507568359376Q106.84187023925782 0.0 106.47387445068358 0.0H101.26972717285156Q100.52300067138671 0.0 100.06147192382812 -0.45156240844726564Q99.59994317626953 -0.9031248168945313 99.59994317626953 -1.7127180786132812ZM83.74836114501953 -9.922960021972656Q83.74836114501953 -13.47262481689453 85.12529312133789 -16.05820651245117Q86.50222509765625 -18.643788208007813 88.82445581054688 -20.045253845214845Q91.1466865234375 -21.446719482421873 93.98488287353516 -21.446719482421873Q96.5302124633789 -21.446719482421873 98.38209078979492 -20.30400595092773Q100.23396911621093 -19.161292419433593 101.3923989868164 -17.090532958984376L100.47394036865234 -16.330008422851563Q99.52711077880859 -18.03507012939453 98.13063006591796 -18.952768585205078Q96.73414935302733 -19.870467041015626 95.00608343505858 -19.870467041015626Q93.36925103759765 -19.870467041015626 92.04751821899413 -18.883000000000003Q90.72578540039062 -17.895532958984376 89.95490216064454 -15.821314514160157Q89.18401892089844 -13.747096069335937 89.18401892089844 -10.474958618164063Q89.18401892089844 -7.4834228515625 89.8943348388672 -5.508104827880859Q90.60465075683594 -3.5327868041992185 91.84856625366211 -2.5545196228027343Q93.09248175048828 -1.57625244140625 94.6902138671875 -1.57625244140625Q96.19364233398437 -1.57625244140625 97.63152346801758 -2.446032592773437Q99.06940460205078 -3.315812744140625 100.32060375976562 -5.158107971191406L100.91246490478515 -4.359249633789062Q99.14529870605469 -1.9258555297851563 97.13778854370116 -0.7083948059082031Q95.13027838134765 0.50906591796875 92.72448596191406 0.50906591796875Q90.13315496826172 0.50906591796875 88.1041735534668 -0.7965659179687499Q86.07519213867187 -2.1021977539062497 84.9117766418457 -4.452412689208984Q83.74836114501953 -6.802627624511719 83.74836114501953 -9.922960021972656Z M120.48854766845703 -21.44058624267578Q123.72541021728516 -21.44058624267578 126.20940740966796 -20.039887084960938Q128.69340460205078 -18.639187927246095 130.1017699584961 -16.151739471435548Q131.5101353149414 -13.664291015625 131.5101353149414 -10.406726501464844Q131.5101353149414 -7.2388611450195315 130.06995333862307 -4.773262969970704Q128.6297713623047 -2.307664794921875 126.10054064941407 -0.8992994384765625Q123.57130993652345 0.50906591796875 120.2662138671875 0.50906591796875Q117.02935131835937 0.50906591796875 114.55378750610352 -0.8843495788574218Q112.07822369384766 -2.2777650756835937 110.6775252380371 -4.749496490478515Q109.27682678222656 -7.221227905273437 109.27682678222656 -10.4496591796875Q109.27682678222656 -13.647424255371094 110.70359185791017 -16.122989471435545Q112.13035693359376 -18.5985546875 114.65422088623048 -20.019570465087888Q117.17808483886719 -21.44058624267578 120.48854766845703 -21.44058624267578ZM121.86930993652344 -0.8525189208984375Q123.53144177246094 -1.0579845581054688 124.59097473144531 -2.311101318359375Q125.65050769042969 -3.564218078613281 126.01045825195312 -5.7979028625488285Q126.37040881347656 -8.031587646484375 125.91654345703125 -11.164957214355468Q125.46881134033204 -14.314427062988281 124.47904626464845 -16.373312408447266Q123.48928118896485 -18.432197753906248 122.07094949340821 -19.367149017333983Q120.65261779785156 -20.302100280761717 118.92301892089844 -20.079001403808594Q117.2286865234375 -19.868169006347657 116.17183694458008 -18.601635345458984Q115.11498736572265 -17.33510168457031 114.77957046508789 -15.107166900634766Q114.44415356445313 -12.87923211669922 114.88651892089844 -9.761196350097656Q115.33425103759767 -6.660793823242187 116.33513287353517 -4.596158477783203Q117.33601470947266 -2.5315231323242187 118.75396316528321 -1.5862215881347654Q120.17191162109376 -0.6409200439453124 121.86930993652344 -0.8525189208984375Z M162.19827416992186 -9.484457946777344 160.83208764648438 -8.694791748046875 169.3719775390625 -30.876743347167967Q169.65640881347656 -31.639571533203124 170.01558868408205 -31.919785766601564Q170.3747685546875 -32.2 171.0141626586914 -32.2H177.51243756103514Q177.91109954833985 -32.2 178.1100473022461 -32.046285064697265Q178.30899505615236 -31.89257012939453 178.30899505615236 -31.62040673828125Q178.30899505615236 -31.391176025390624 178.162563079834 -31.231327850341795Q178.01613110351562 -31.071479675292967 177.68723419189453 -30.981014038085938L176.03812689208985 -30.659014038085935Q175.43093054199218 -30.515648681640624 175.19709814453125 -30.163366424560547Q174.9632657470703 -29.81108416748047 175.0107987060547 -29.075088378906248L176.93436743164062 -2.8397138671874997Q176.98036743164062 -2.181149353027344 177.20154940795896 -1.9235504760742188Q177.42273138427734 -1.6659515991210938 178.0184291381836 -1.5241192016601561L179.58473559570314 -1.2189859619140624Q179.901366027832 -1.1400203247070313 180.0416647644043 -0.98898876953125Q180.18196350097656 -0.8379572143554688 180.18196350097656 -0.6041262207031249Q180.18196350097656 -0.3495960693359375 179.98608236694335 -0.17479803466796875Q179.79020123291014 0.0 179.39153924560546 0.0H168.48800067138671Q168.08397192382813 0.0 167.88502416992188 -0.16253155517578124Q167.68607641601562 -0.3250631103515625 167.68607641601562 -0.57959326171875Q167.68607641601562 -0.8134242553710938 167.8263751525879 -0.9705890502929687Q167.96667388916015 -1.1277538452148437 168.31933728027343 -1.2189859619140624L169.88641021728515 -1.5241192016601561Q170.56030712890623 -1.684351318359375 170.80257290649413 -1.9649501953125Q171.04483868408204 -2.245549072265625 171.00957220458983 -2.8335806274414064L169.04920544433594 -28.773007019042968L170.27049224853516 -28.94167462158203L160.6005308227539 -3.3089368896484372Q160.35059954833983 -2.6258422241210937 160.0933853149414 -2.4238271484375Q159.83617108154297 -2.2218120727539064 159.5111079711914 -2.2218120727539064Q159.2757440185547 -2.2218120727539064 159.07449612426757 -2.3042282714843747Q158.87324822998048 -2.3866444702148435 158.69653329467775 -2.6273758850097657Q158.519818359375 -2.8681072998046875 158.3227868041992 -3.351869567871094L148.19435272216796 -28.415743347167968L149.35200628662108 -29.113408142089842L147.39470825195312 -3.895421447753906Q147.32494177246093 -2.96698876953125 147.84474261474608 -2.422654266357422Q148.36454345703123 -1.8783197631835937 149.3090778198242 -1.5655203247070313L151.0110862426758 -1.1637868041992188Q151.26101751708984 -1.0733211669921874 151.39863287353515 -0.9468225708007811Q151.53624822998046 -0.820323974609375 151.53624822998046 -0.5979929809570312Q151.53624822998046 -0.33732958984375 151.3426672363281 -0.168664794921875Q151.14908624267576 0.0 150.7504242553711 0.0H142.74488006591795Q142.34621807861328 0.0 142.15302032470703 -0.16253155517578124Q141.95982257080078 -0.3250631103515625 141.95982257080078 -0.57959326171875Q141.95982257080078 -0.85635693359375 142.14228750610351 -0.9955052490234375Q142.32475244140625 -1.134653564453125 142.61914935302735 -1.2373856811523438L143.90485412597656 -1.5915862426757812Q144.77962200927735 -1.8553197631835938 145.300190032959 -2.4119207458496095Q145.8207580566406 -2.968521728515625 145.8958912963867 -3.923021728515625L147.7949228515625 -28.229443908691405Q147.8915231323242 -29.331145874023438 147.63622439575195 -29.915730377197264Q147.3809256591797 -30.500314880371093 146.68249438476562 -30.648280517578126L145.22582257080077 -30.913546997070313Q144.82562481689453 -31.014746154785154 144.6377924194336 -31.16884432983398Q144.44996002197266 -31.32294250488281 144.44996002197266 -31.586673217773438Q144.44996002197266 -32.2 145.33928540039062 -32.2H151.84752874755858Q152.4455231323242 -32.2 152.80738638305664 -31.956201965332035Q153.16924963378906 -31.712403930664063 153.4490806274414 -30.97487658691406Z M198.18101049804687 -1.9580476684570312V-4.0019943847656245L198.08901190185546 -4.110861145019531V-17.558207580566407Q198.08901190185546 -17.91777069091797 197.9644295043945 -18.084519287109373Q197.83984710693358 -18.25126788330078 197.5500490722656 -18.28193408203125L196.04661358642576 -18.324866760253904Q195.78288287353516 -18.367799438476563 195.66635061645508 -18.490464935302732Q195.549818359375 -18.613130432128905 195.549818359375 -18.799428466796876Q195.549818359375 -19.020992980957033 195.6874337158203 -19.15362481689453Q195.8250490722656 -19.28625665283203 196.16927838134765 -19.40738848876953L201.13192846679686 -20.96909045410156Q201.64712341308592 -21.155388488769532 201.95455328369138 -21.231287506103516Q202.26198315429687 -21.3071865234375 202.52648034667968 -21.3071865234375Q202.93587585449217 -21.3071865234375 203.14364022827147 -21.07603890991211Q203.35140460205076 -20.84489129638672 203.35140460205076 -20.4653955078125V-2.4272482299804685Q203.35140460205076 -1.9312180786132813 203.52965390014646 -1.6759193420410157Q203.70790319824218 -1.42062060546875 204.0751353149414 -1.3263211669921875L205.21133868408202 -1.1016879272460938Q205.50880291748047 -1.0227222900390625 205.64066827392577 -0.8816570739746094Q205.77253363037107 -0.7405918579101562 205.77253363037107 -0.53052734375Q205.77253363037107 -0.2890301513671875 205.5977355957031 -0.14451507568359376Q205.42293756103516 0.0 205.05494177246092 0.0H199.91212689208984Q199.14086743164063 0.0 198.66093896484375 -0.5278446655273438Q198.18101049804687 -1.0556893310546875 198.18101049804687 -1.9580476684570312ZM184.31432397460938 -5.9401262207031245V-17.558207580566407Q184.31432397460938 -17.91777069091797 184.18705819702149 -18.084519287109373Q184.0597924194336 -18.25126788330078 183.76462762451172 -18.28193408203125L182.26119213867187 -18.324866760253904Q181.99746142578124 -18.367799438476563 181.88092916870116 -18.490464935302732Q181.76439691162108 -18.613130432128905 181.76439691162108 -18.799428466796876Q181.76439691162108 -19.020992980957033 181.90201226806641 -19.15362481689453Q182.03962762451172 -19.28625665283203 182.38385693359373 -19.40738848876953L187.3572405395508 -20.96909045410156Q187.896201965332 -21.161521728515623 188.1978818359375 -21.234354125976562Q188.49956170654295 -21.3071865234375 188.7272594604492 -21.3071865234375Q189.15505468749998 -21.3071865234375 189.36588568115235 -21.07603890991211Q189.5767166748047 -20.84489129638672 189.5767166748047 -20.4653955078125V-6.619389892578125Q189.5767166748047 -4.446656372070312 190.60174963378904 -3.4009235534667965Q191.62678259277342 -2.3551907348632812 193.3318485107422 -2.3551907348632812Q194.39138146972655 -2.3551907348632812 195.5498134460449 -2.855823272705078Q196.70824542236326 -3.356455810546875 197.9425764160156 -4.437454406738281L198.82270825195312 -5.206420043945313L199.44676855468748 -4.564726501464843L198.56203643798827 -3.778894104003906Q195.96380712890624 -1.422164794921875 193.98504275512693 -0.4780164794921875Q192.00627838134764 0.4661318359375 190.2429473876953 0.4661318359375Q187.61711920166016 0.4661318359375 185.96572158813478 -1.1963811340332031Q184.31432397460938 -2.858894104003906 184.31432397460938 -5.9401262207031245Z M215.91938006591795 -20.49299578857422V-2.4272482299804685Q215.91938006591795 -1.9312180786132813 216.09762936401364 -1.6759193420410157Q216.27587866210936 -1.42062060546875 216.6431107788086 -1.3263211669921875L217.7793141479492 -1.1016879272460938Q218.07677838134765 -1.0227222900390625 218.20864373779295 -0.8816570739746094Q218.34050909423826 -0.7405918579101562 218.34050909423826 -0.53052734375Q218.34050909423826 -0.2890301513671875 218.1657110595703 -0.14451507568359376Q217.99091302490234 0.0 217.6229172363281 0.0H208.89671667480468Q208.55095440673827 0.0 208.37653961181638 -0.14451507568359376Q208.20212481689452 -0.2890301513671875 208.20212481689452 -0.53052734375Q208.20212481689452 -0.72372509765625 208.3309235534668 -0.8621069335937499Q208.45972229003905 -1.0004887695312499 208.74031976318358 -1.0848211669921874L209.93325665283203 -1.3263211669921875Q210.30585552978513 -1.4267538452148438 210.4814214477539 -1.6759193420410157Q210.65698736572264 -1.9250848388671875 210.65698736572264 -2.4103814697265626V-17.585807861328124Q210.65698736572264 -17.945370971679687 210.5324049682617 -18.11211956787109Q210.40782257080076 -18.278868164062498 210.1180245361328 -18.30953436279297L208.61458905029295 -18.352467041015625Q208.35085833740234 -18.39539971923828 208.23432608032226 -18.518065216064453Q208.11779382324218 -18.640730712890626 208.11779382324218 -18.827028747558593Q208.11779382324218 -19.04859326171875 208.2554091796875 -19.181225097656252Q208.3930245361328 -19.31385693359375 208.73725384521484 -19.434988769531248L213.69990393066405 -20.996690734863282Q214.2388653564453 -21.189122009277344 214.54054522705076 -21.261954406738283Q214.84222509765624 -21.33478680419922 215.0699228515625 -21.33478680419922Q215.49771807861327 -21.33478680419922 215.7085490722656 -21.103639190673828Q215.91938006591795 -20.872491577148438 215.91938006591795 -20.49299578857422ZM212.95852032470702 -24.960348510742186Q211.46199017333984 -24.960348510742186 210.54045861816405 -25.837798370361327Q209.61892706298826 -26.715248229980467 209.61892706298826 -28.060746826171876Q209.61892706298826 -29.411612182617187 210.54582537841796 -30.279862182617187Q211.47272369384766 -31.148112182617187 212.95852032470702 -31.148112182617187Q214.46655047607422 -31.148112182617187 215.40188217163086 -30.274112182617188Q216.3372138671875 -29.400112182617185 216.3372138671875 -28.060746826171876Q216.3372138671875 -26.715248229980467 215.39919879150392 -25.837798370361327Q214.4611837158203 -24.960348510742186 212.95852032470702 -24.960348510742186Z M228.21671246337888 -20.49299578857422V-2.4272482299804685Q228.21671246337888 -1.9312180786132813 228.39496176147458 -1.6789859619140626Q228.5732110595703 -1.4267538452148438 228.94044317626953 -1.3263211669921875L230.06438006591796 -1.0955546875Q230.5642426147461 -0.9322566528320312 230.5642426147461 -0.555060302734375Q230.5642426147461 0.0 229.84051751708984 0.0H221.1940490722656Q220.8482868041992 0.0 220.67387200927732 -0.14451507568359376Q220.49945721435546 -0.2890301513671875 220.49945721435546 -0.53052734375Q220.49945721435546 -0.72372509765625 220.62825595092772 -0.8621069335937499Q220.7570546875 -1.0004887695312499 221.0376521606445 -1.0848211669921874L222.23058905029296 -1.3263211669921875Q222.60318792724607 -1.4267538452148438 222.77875384521482 -1.6759193420410157Q222.95431976318358 -1.9250848388671875 222.95431976318358 -2.4103814697265626V-17.585807861328124Q222.95431976318358 -17.945370971679687 222.82973736572262 -18.11211956787109Q222.7051549682617 -18.278868164062498 222.41535693359373 -18.30953436279297L220.91192144775388 -18.352467041015625Q220.64819073486328 -18.39539971923828 220.5316584777832 -18.518065216064453Q220.41512622070312 -18.640730712890626 220.41512622070312 -18.827028747558593Q220.41512622070312 -19.04859326171875 220.55274157714842 -19.181225097656252Q220.69035693359373 -19.31385693359375 221.03458624267577 -19.434988769531248L225.99723632812498 -20.996690734863282Q226.51779803466795 -21.18298876953125 226.82254452514647 -21.258887786865234Q227.127291015625 -21.33478680419922 227.3917882080078 -21.33478680419922Q227.8011837158203 -21.33478680419922 228.00894808959958 -21.103639190673828Q228.21671246337888 -20.872491577148438 228.21671246337888 -20.49299578857422ZM227.66624822998045 -15.774167602539062 227.0421879272461 -16.41586114501953 227.9269200439453 -17.20169354248047Q230.4707152709961 -19.484056091308595 232.30151190185546 -20.465387786865236Q234.13230853271483 -21.446719482421873 235.79597192382812 -21.446719482421873Q238.28609954833982 -21.446719482421873 239.66724645996092 -19.81065707397461Q241.04839337158202 -18.174594665527344 241.40336041259764 -15.169263671875L242.93593054199218 -2.5391823120117185Q243.00033026123046 -1.9871851196289063 243.1827966003418 -1.6931693420410157Q243.36526293945312 -1.399153564453125 243.78232885742187 -1.2987208862304687L244.80199786376951 -1.0848211669921874Q245.08259533691404 -1.0058555297851561 245.2113940734863 -0.8674736938476562Q245.34019281005857 -0.7290918579101562 245.34019281005857 -0.53052734375Q245.34019281005857 -0.2890301513671875 245.1715280151367 -0.14451507568359376Q245.00286322021483 0.0 244.6348674316406 0.0H235.87569842529297Q235.1412398071289 0.0 235.1412398071289 -0.555060302734375Q235.1412398071289 -0.9215231323242188 235.64570263671874 -1.0955546875L236.81563952636716 -1.3263211669921875Q237.24957220458984 -1.4267538452148438 237.45427136230467 -1.7207696228027345Q237.65897052001952 -2.014785400390625 237.59457080078124 -2.5391823120117185L236.17930151367187 -14.49Q235.91556799316405 -16.592199157714845 235.12858587646483 -17.60879803466797Q234.3416037597656 -18.625396911621092 232.80903924560545 -18.625396911621092Q231.82770684814452 -18.625396911621092 230.7869589538574 -18.107514373779296Q229.7462110595703 -17.5896318359375 228.54638006591796 -16.543133239746094ZM235.09753503417966 -23.31048455810547Q234.17370263671873 -23.31048455810547 233.39400347900389 -23.711834136962892Q232.61430432128904 -24.113183715820313 231.93427136230468 -24.641416534423826Q231.2542384033203 -25.169649353027342 230.61522192382813 -25.570998931884766Q229.97620544433593 -25.972348510742187 229.3207054443359 -25.972348510742187Q228.57473840332028 -25.972348510742187 228.19792178344724 -25.402331329345703Q227.8211051635742 -24.83231414794922 227.74290600585937 -23.690746826171875Q227.65090740966795 -23.177083435058595 227.1970448608398 -23.177083435058595Q226.65195019531248 -23.177083435058595 226.65195019531248 -23.91154345703125Q226.65195019531248 -26.442309936523436 227.51176541137693 -27.730309936523437Q228.37158062744138 -29.018309936523437 230.02988146972655 -29.018309936523437Q230.96598034667966 -29.018309936523437 231.73954626464842 -28.616960357666017Q232.51311218261716 -28.215610778808593 233.19314514160152 -27.690444580078122Q233.8731781005859 -27.165278381347655 234.5121945800781 -26.763928802490234Q235.1512110595703 -26.362579223632814 235.8128442993164 -26.362579223632814Q236.570311340332 -26.362579223632814 236.944061340332 -26.938729644775393Q237.317811340332 -27.514880065917968 237.38451049804686 -28.650314147949217Q237.47650909423825 -29.157844299316405 237.93650488281247 -29.157844299316405Q238.47546630859372 -29.157844299316405 238.47546630859372 -28.42951751708984Q238.47546630859372 -25.897984558105467 237.61565109252928 -24.604234558105468Q236.75583587646483 -23.31048455810547 235.09753503417966 -23.31048455810547Z M257.84454766845704 -21.44058624267578Q261.08141021728517 -21.44058624267578 263.56540740966796 -20.039887084960938Q266.0494046020508 -18.639187927246095 267.4577699584961 -16.151739471435548Q268.8661353149414 -13.664291015625 268.8661353149414 -10.406726501464844Q268.8661353149414 -7.2388611450195315 267.425953338623 -4.773262969970704Q265.98577136230466 -2.307664794921875 263.456540649414 -0.8992994384765625Q260.92730993652344 0.50906591796875 257.6222138671875 0.50906591796875Q254.38535131835937 0.50906591796875 251.9097875061035 -0.8843495788574218Q249.43422369384766 -2.2777650756835937 248.0335252380371 -4.749496490478515Q246.63282678222657 -7.221227905273437 246.63282678222657 -10.4496591796875Q246.63282678222657 -13.647424255371094 248.05959185791016 -16.122989471435545Q249.48635693359375 -18.5985546875 252.01022088623046 -20.019570465087888Q254.5340848388672 -21.44058624267578 257.84454766845704 -21.44058624267578ZM259.22530993652344 -0.8525189208984375Q260.88744177246093 -1.0579845581054688 261.94697473144527 -2.311101318359375Q263.00650769042966 -3.564218078613281 263.3664582519531 -5.7979028625488285Q263.72640881347655 -8.031587646484375 263.27254345703125 -11.164957214355468Q262.824811340332 -14.314427062988281 261.83504626464844 -16.373312408447266Q260.84528118896486 -18.432197753906248 259.4269494934082 -19.367149017333983Q258.00861779785157 -20.302100280761717 256.27901892089847 -20.079001403808594Q254.5846865234375 -19.868169006347657 253.5278369445801 -18.601635345458984Q252.47098736572266 -17.33510168457031 252.13557046508788 -15.107166900634766Q251.80015356445313 -12.87923211669922 252.24251892089845 -9.761196350097656Q252.69025103759765 -6.660793823242187 253.69113287353514 -4.596158477783203Q254.69201470947266 -2.5315231323242187 256.1099631652832 -1.5862215881347654Q257.5279116210937 -0.6409200439453124 259.22530993652344 -0.8525189208984375Z"/><path fill="#B7BCA8" transform="translate(136 92)" d="M0.9016908645629882 0.0V-8.1484375H5.973731851577758V-7.074162578582763H2.1514010429382324V-4.456374359130859H5.605794191360474V-3.3899741172790527H2.1514010429382324V0.0Z M10.992182292938232 -8.1484375V0.0H9.742472114562988V-8.1484375Z M17.76960757255554 0.1343128204345703Q16.856655769348144 0.1343128204345703 16.183016185760497 -0.1554760217666626Q15.50937660217285 -0.4452648639678955 15.130173997879027 -0.9826778650283813Q14.750971393585203 -1.520090866088867 14.709627323150633 -2.264713382720947H15.962072877883909Q16.001885538101195 -1.8210877418518066 16.25164409160614 -1.5304233789443968Q16.50140264511108 -1.2397590160369871 16.899090986251828 -1.097297978401184Q17.296779327392578 -0.9548369407653808 17.76370156288147 -0.9548369407653808Q18.280609254837035 -0.9548369407653808 18.68491540431976 -1.1185719966888428Q19.08922155380249 -1.2823070526123046 19.32213659763336 -1.5794255018234251Q19.55505164146423 -1.8765439510345459 19.55505164146423 -2.26723313331604Q19.55505164146423 -2.6235784053802487 19.352269630432126 -2.850477623939514Q19.149487619400023 -3.0773768424987793 18.800799398422242 -3.2280959129333495Q18.452111177444458 -3.3788149833679197 18.01165817260742 -3.494205808639526L17.05681322097778 -3.7544096946716308Q16.055704526901245 -4.024456930160523 15.495541005134582 -4.550386357307434Q14.935377483367919 -5.076315784454345 14.935377483367919 -5.91226782798767Q14.935377483367919 -6.61707968711853 15.316111497879028 -7.145688581466674Q15.696845512390135 -7.674297475814819 16.35041504383087 -7.966054987907409Q17.003984575271605 -8.2578125 17.823967628479004 -8.2578125Q18.66134126663208 -8.2578125 19.297520213127136 -7.965070652961731Q19.93369915962219 -7.672328805923462 20.29780829429626 -7.1631889820098875Q20.661917428970334 -6.6540491580963135 20.6808394241333 -6.003597354888916H19.4648162651062Q19.40159719467163 -6.564255046844482 18.945775179862977 -6.870943307876587Q18.48995316505432 -7.177631568908691 17.797061138153076 -7.177631568908691Q17.30552852630615 -7.177631568908691 16.94103503704071 -7.022099637985229Q16.576541547775268 -6.866567707061767 16.378462581634523 -6.59657437801361Q16.180383615493774 -6.326581048965454 16.180383615493774 -5.980188941955566Q16.180383615493774 -5.595952844619751 16.41805661201477 -5.356858253479004Q16.655729608535765 -5.117763662338256 16.997746114730834 -4.9797321319580075Q17.339762620925903 -4.841700601577759 17.650824480056762 -4.759669351577759L18.439091186523434 -4.550215625762939Q18.829229288101196 -4.452872276306152 19.241463022232054 -4.2849822521209715Q19.653696756362912 -4.117092227935791 20.005283074378966 -3.851967668533325Q20.35686939239502 -3.586843109130859 20.57354190826416 -3.19533531665802Q20.7902144241333 -2.8038275241851807 20.7902144241333 -2.253779888153076Q20.7902144241333 -1.5619840145111084 20.43408978462219 -1.0216170072555542Q20.077965145111083 -0.48124999999999996 19.40246570587158 -0.17346858978271484Q18.72696626663208 0.1343128204345703 17.76960757255554 0.1343128204345703Z M25.75890104293823 -8.1484375V0.0H24.509190864562985V-8.1484375Z M33.19640584945679 0.109375Q32.14006258010864 0.109375 31.307719430923463 -0.39205486774444576Q30.47537628173828 -0.8934847354888915 29.995220432281492 -1.8303910255432128Q29.515064582824706 -2.767297315597534 29.515064582824706 -4.06875Q29.515064582824706 -5.376655769348144 29.995220432281492 -6.314054226875305Q30.47537628173828 -7.251452684402465 31.307719430923463 -7.754632592201233Q32.14006258010864 -8.2578125 33.19640584945679 -8.2578125Q34.25274911880493 -8.2578125 35.08235789299011 -7.754632592201233Q35.91196666717529 -7.251452684402465 36.39037247657776 -6.314054226875305Q36.86877828598023 -5.376655769348144 36.86877828598023 -4.06875Q36.86877828598023 -2.7663129806518554 36.39037247657776 -1.8294066905975341Q35.91196666717529 -0.8925004005432128 35.08235789299011 -0.3915627002716064Q34.25274911880493 0.109375 33.19640584945679 0.109375ZM33.19640584945679 -1.0263679504394532Q33.89225088119507 -1.0263679504394532 34.4417524433136 -1.3758218765258787Q34.991254005432125 -1.7252758026123045 35.31046608448028 -2.4055351972579953Q35.62967816352844 -3.0857945919036864 35.62967816352844 -4.06875Q35.62967816352844 -5.061658573150634 35.31046608448028 -5.742410135269164Q34.991254005432125 -6.423161697387695 34.4417524433136 -6.77261562347412Q33.89225088119507 -7.122069549560546 33.19640584945679 -7.122069549560546Q32.497060737609864 -7.122069549560546 31.945316967964175 -6.77037341594696Q31.39357319831848 -6.418677282333373 31.073868951797486 -5.737925720214843Q30.754164705276487 -5.057174158096313 30.754164705276487 -4.06875Q30.754164705276487 -3.0857945919036864 31.073868951797486 -2.407777404785156Q31.39357319831848 -1.7297602176666258 31.945316967964175 -1.3780640840530394Q32.497060737609864 -1.0263679504394532 33.19640584945679 -1.0263679504394532Z M39.8805329322815 -7.074162578582763V-8.1484375H46.20371370315552V-7.074162578582763H43.67146282196045V0.0H42.42175264358521V-7.074162578582763Z M49.83934711456299 0.0V-8.1484375H54.96837171554566V-7.074162578582763H51.089057292938236V-4.646684455871582H54.69351262092591V-3.580284214019775H51.089057292938236V-1.0742749214172362H55.00479411125183V0.0Z M58.83325336456299 0.0V-8.1484375H61.752248077392586Q62.695935897827155 -8.1484375 63.3229822921753 -7.822062540054321Q63.95002868652344 -7.495687580108642 64.26284058570863 -6.917586398124694Q64.57565248489381 -6.339485216140747 64.57565248489381 -5.587533092498779Q64.57565248489381 -4.833612298965454 64.2613640832901 -4.267925119400024Q63.94707568168641 -3.7022379398345944 63.31882632255555 -3.3892613172531125Q62.69057696342469 -3.0762846946716307 61.742951803207404 -3.0762846946716307H59.548779087066656V-4.143232011795043H61.621876602172854Q62.22190969467164 -4.143232011795043 62.59274645328522 -4.315662360191345Q62.96358321189881 -4.488092708587646 63.13814595222473 -4.811242127418518Q63.312708692550665 -5.13439154624939 63.312708692550665 -5.587533092498779Q63.312708692550665 -6.049643468856811 63.13814595222473 -6.382746052742004Q62.96358321189881 -6.7158486366271966 62.59050424575806 -6.898232150077819Q62.217425279617316 -7.080615663528442 61.61290777206421 -7.080615663528442H60.08296354293824V0.0ZM63.465286617279055 0.0 61.492599277496346 -3.682327604293823H62.87552812576294L64.88496530532838 0.0Z M67.70706274032594 0.0 70.60856506347656 -8.1484375H72.1384892654419L75.089100522995 0.0H73.74139210700989L72.15402700424195 -4.533168506622314Q71.96885621070862 -5.085945510864257 71.747973818779 -5.834614181518554Q71.52709142684937 -6.583282852172851 71.23713786125184 -7.632188701629638H71.48913561820984Q71.20563513755799 -6.5743140220642085 70.98617434024811 -5.816676521301269Q70.76671354293823 -5.0590390205383295 70.59696466445924 -4.533168506622314L69.05783397674561 0.0ZM69.2792155456543 -2.1470364570617675V-3.188718509674072H73.51694771766662V-2.1470364570617675Z M78.51090961456299 0.0V-8.1484375H81.42990432739258Q82.37359214782714 -8.1484375 83.0006385421753 -7.799203205108642Q83.62768493652344 -7.449968910217285 83.94049683570861 -6.853000640869141Q84.25330873489379 -6.256032371520996 84.25330873489379 -5.503095912933349Q84.25330873489379 -4.749175119400024 83.9390203332901 -4.150183272361755Q83.6247319316864 -3.551191425323486 82.99648257255554 -3.2016835927963254Q82.36823321342467 -2.852175760269165 81.42060805320739 -2.852175760269165H79.42374959945678V-3.9101542472839355H81.29953285217285Q81.89956594467162 -3.9101542472839355 82.27264491081237 -4.1168735980987545Q82.64572387695313 -4.323592948913574 82.81804440975189 -4.685023617744445Q82.99036494255066 -5.046454286575317 82.99036494255066 -5.503095912933349Q82.99036494255066 -5.961706209182739 82.81804440975189 -6.31816029548645Q82.64572387695313 -6.67461438179016 82.27040270328521 -6.877615022659301Q81.8950815296173 -7.080615663528442 81.2905640220642 -7.080615663528442H79.76061979293823V0.0Z M89.18655729293823 -8.1484375V0.0H87.936847114563V-8.1484375Z M92.60518774032593 0.0 95.50669006347655 -8.1484375H97.0366142654419L99.98722552299499 0.0H98.63951710700988L97.05215200424195 -4.533168506622314Q96.86698121070862 -5.085945510864257 96.646098818779 -5.834614181518554Q96.42521642684936 -6.583282852172851 96.13526286125183 -7.632188701629638H96.38726061820984Q96.10376013755798 -6.5743140220642085 95.8842993402481 -5.816676521301269Q95.66483854293823 -5.0590390205383295 95.49508966445923 -4.533168506622314L93.9559589767456 0.0ZM94.17734054565429 -2.1470364570617675V-3.188718509674072H98.41507271766662V-2.1470364570617675Z M109.43219964027404 -3.0637059688568113Q109.09445092201231 -3.0637059688568113 108.85924076557158 -3.2979317903518677Q108.62403060913086 -3.5321576118469236 108.62403060913086 -3.868921995162964Q108.62403060913086 -4.205686378479004 108.85924076557158 -4.43991219997406Q109.09445092201231 -4.6741380214691155 109.43219964027404 -4.6741380214691155Q109.76994835853576 -4.6741380214691155 110.0051585149765 -4.43991219997406Q110.24036867141723 -4.205686378479004 110.24036867141723 -3.868921995162964Q110.24036867141723 -3.5321576118469236 110.0051585149765 -3.2979317903518677Q109.76994835853576 -3.0637059688568113 109.43219964027404 -3.0637059688568113Z M122.89265584945677 0.109375Q121.83631258010864 0.109375 121.00396943092346 -0.39205486774444576Q120.17162628173827 -0.8934847354888915 119.69147043228148 -1.8303910255432128Q119.2113145828247 -2.767297315597534 119.2113145828247 -4.06875Q119.2113145828247 -5.376655769348144 119.69147043228148 -6.314054226875305Q120.17162628173827 -7.251452684402465 121.00396943092346 -7.754632592201233Q121.83631258010864 -8.2578125 122.89265584945677 -8.2578125Q123.94899911880492 -8.2578125 124.7786078929901 -7.754632592201233Q125.60821666717528 -7.251452684402465 126.08662247657776 -6.314054226875305Q126.56502828598022 -5.376655769348144 126.56502828598022 -4.06875Q126.56502828598022 -2.7663129806518554 126.08662247657776 -1.8294066905975341Q125.60821666717528 -0.8925004005432128 124.7786078929901 -0.3915627002716064Q123.94899911880492 0.109375 122.89265584945677 0.109375ZM122.89265584945677 -1.0263679504394532Q123.58850088119506 -1.0263679504394532 124.13800244331358 -1.3758218765258787Q124.68750400543212 -1.7252758026123045 125.00671608448027 -2.4055351972579953Q125.32592816352843 -3.0857945919036864 125.32592816352843 -4.06875Q125.32592816352843 -5.061658573150634 125.00671608448027 -5.742410135269164Q124.68750400543212 -6.423161697387695 124.13800244331358 -6.77261562347412Q123.58850088119506 -7.122069549560546 122.89265584945677 -7.122069549560546Q122.19331073760985 -7.122069549560546 121.64156696796417 -6.77037341594696Q121.08982319831847 -6.418677282333373 120.77011895179749 -5.737925720214843Q120.45041470527649 -5.057174158096313 120.45041470527649 -4.06875Q120.45041470527649 -3.0857945919036864 120.77011895179749 -2.407777404785156Q121.08982319831847 -1.7297602176666258 121.64156696796417 -1.3780640840530394Q122.19331073760985 -1.0263679504394532 122.89265584945677 -1.0263679504394532Z M133.05851382255554 0.1343128204345703Q132.14556201934812 0.1343128204345703 131.47192243576046 -0.1554760217666626Q130.79828285217283 -0.4452648639678955 130.419080247879 -0.9826778650283813Q130.03987764358519 -1.520090866088867 129.9985335731506 -2.264713382720947H131.2509791278839Q131.2907917881012 -1.8210877418518066 131.54055034160615 -1.5304233789443968Q131.79030889511108 -1.2397590160369871 132.18799723625182 -1.097297978401184Q132.58568557739255 -0.9548369407653808 133.05260781288146 -0.9548369407653808Q133.56951550483703 -0.9548369407653808 133.97382165431975 -1.1185719966888428Q134.37812780380247 -1.2823070526123046 134.61104284763334 -1.5794255018234251Q134.8439578914642 -1.8765439510345459 134.8439578914642 -2.26723313331604Q134.8439578914642 -2.6235784053802487 134.64117588043212 -2.850477623939514Q134.43839386940002 -3.0773768424987793 134.08970564842224 -3.2280959129333495Q133.74101742744443 -3.3788149833679197 133.3005644226074 -3.494205808639526L132.34571947097777 -3.7544096946716308Q131.34461077690122 -4.024456930160523 130.78444725513458 -4.550386357307434Q130.2242837333679 -5.076315784454345 130.2242837333679 -5.91226782798767Q130.2242837333679 -6.61707968711853 130.605017747879 -7.145688581466674Q130.98575176239012 -7.674297475814819 131.63932129383085 -7.966054987907409Q132.2928908252716 -8.2578125 133.11287387847898 -8.2578125Q133.95024751663206 -8.2578125 134.5864264631271 -7.965070652961731Q135.2226054096222 -7.672328805923462 135.58671454429626 -7.1631889820098875Q135.95082367897032 -6.6540491580963135 135.9697456741333 -6.003597354888916H134.75372251510618Q134.6905034446716 -6.564255046844482 134.23468142986297 -6.870943307876587Q133.7788594150543 -7.177631568908691 133.08596738815305 -7.177631568908691Q132.59443477630614 -7.177631568908691 132.2299412870407 -7.022099637985229Q131.86544779777526 -6.866567707061767 131.66736883163452 -6.59657437801361Q131.46928986549375 -6.326581048965454 131.46928986549375 -5.980188941955566Q131.46928986549375 -5.595952844619751 131.70696286201473 -5.356858253479004Q131.94463585853575 -5.117763662338256 132.2866523647308 -4.9797321319580075Q132.62866887092588 -4.841700601577759 132.93973073005674 -4.759669351577759L133.72799743652342 -4.550215625762939Q134.11813553810117 -4.452872276306152 134.53036927223204 -4.2849822521209715Q134.9426030063629 -4.117092227935791 135.29418932437895 -3.851967668533325Q135.645775642395 -3.586843109130859 135.86244815826416 -3.19533531665802Q136.0791206741333 -2.8038275241851807 136.0791206741333 -2.253779888153076Q136.0791206741333 -1.5619840145111084 135.72299603462218 -1.0216170072555542Q135.36687139511108 -0.48124999999999996 134.69137195587157 -0.17346858978271484Q134.01587251663207 0.1343128204345703 133.05851382255554 0.1343128204345703Z M139.32537668228147 -7.074162578582763V-8.1484375H145.6485574531555V-7.074162578582763H143.11630657196042V0.0H141.86659639358518V-7.074162578582763Z M149.28419086456296 0.0V-8.1484375H154.41321546554562V-7.074162578582763H150.5339010429382V-4.646684455871582H154.13835637092586V-3.580284214019775H150.5339010429382V-1.0742749214172362H154.4496378612518V0.0Z M161.67374959945676 0.109375Q160.61740633010862 0.109375 159.78506318092343 -0.39205486774444576Q158.95272003173827 -0.8934847354888915 158.47256418228147 -1.8303910255432128Q157.99240833282468 -2.767297315597534 157.99240833282468 -4.06875Q157.99240833282468 -5.376655769348144 158.47256418228147 -6.314054226875305Q158.95272003173827 -7.251452684402465 159.78506318092343 -7.754632592201233Q160.61740633010862 -8.2578125 161.67374959945676 -8.2578125Q162.73009286880492 -8.2578125 163.5597016429901 -7.754632592201233Q164.38931041717527 -7.251452684402465 164.86771622657773 -6.314054226875305Q165.3461220359802 -5.376655769348144 165.3461220359802 -4.06875Q165.3461220359802 -2.7663129806518554 164.86771622657773 -1.8294066905975341Q164.38931041717527 -0.8925004005432128 163.5597016429901 -0.3915627002716064Q162.73009286880492 0.109375 161.67374959945676 0.109375ZM161.67374959945676 -1.0263679504394532Q162.36959463119504 -1.0263679504394532 162.91909619331358 -1.3758218765258787Q163.4685977554321 -1.7252758026123045 163.78780983448027 -2.4055351972579953Q164.10702191352843 -3.0857945919036864 164.10702191352843 -4.06875Q164.10702191352843 -5.061658573150634 163.78780983448027 -5.742410135269164Q163.4685977554321 -6.423161697387695 162.91909619331358 -6.77261562347412Q162.36959463119504 -7.122069549560546 161.67374959945676 -7.122069549560546Q160.97440448760983 -7.122069549560546 160.42266071796416 -6.77037341594696Q159.87091694831847 -6.418677282333373 159.55121270179745 -5.737925720214843Q159.23150845527647 -5.057174158096313 159.23150845527647 -4.06875Q159.23150845527647 -3.0857945919036864 159.55121270179745 -2.407777404785156Q159.87091694831847 -1.7297602176666258 160.42266071796416 -1.3780640840530394Q160.97440448760983 -1.0263679504394532 161.67374959945676 -1.0263679504394532Z M169.10403461456298 0.0V-8.1484375H172.02302932739255Q172.96671714782713 -8.1484375 173.59376354217528 -7.799203205108642Q174.2208099365234 -7.449968910217285 174.5336218357086 -6.853000640869141Q174.8464337348938 -6.256032371520996 174.8464337348938 -5.503095912933349Q174.8464337348938 -4.749175119400024 174.5321453332901 -4.150183272361755Q174.21785693168638 -3.551191425323486 173.5896075725555 -3.2016835927963254Q172.96135821342466 -2.852175760269165 172.01373305320737 -2.852175760269165H170.01687459945677V-3.9101542472839355H171.89265785217285Q172.4926909446716 -3.9101542472839355 172.86576991081236 -4.1168735980987545Q173.2388488769531 -4.323592948913574 173.4111694097519 -4.685023617744445Q173.58348994255064 -5.046454286575317 173.58348994255064 -5.503095912933349Q173.58348994255064 -5.961706209182739 173.4111694097519 -6.31816029548645Q173.2388488769531 -6.67461438179016 172.8635277032852 -6.877615022659301Q172.4882065296173 -7.080615663528442 171.8836890220642 -7.080615663528442H170.35374479293822V0.0Z M177.0481564903259 0.0 179.94965881347653 -8.1484375H181.47958301544188L184.43019427299498 0.0H183.08248585700986L181.49512075424192 -4.533168506622314Q181.3099499607086 -5.085945510864257 181.08906756877897 -5.834614181518554Q180.86818517684935 -6.583282852172851 180.5782316112518 -7.632188701629638H180.8302293682098Q180.54672888755795 -6.5743140220642085 180.32726809024808 -5.816676521301269Q180.10780729293822 -5.0590390205383295 179.9380584144592 -4.533168506622314L178.39892772674557 0.0ZM178.62030929565427 -2.1470364570617675V-3.188718509674072H182.8580414676666V-2.1470364570617675Z M186.47693918228146 -7.074162578582763V-8.1484375H192.80011995315547V-7.074162578582763H190.2678690719604V0.0H189.01815889358517V-7.074162578582763Z M197.68546354293818 -8.1484375V0.0H196.43575336456294V-8.1484375ZM196.5764074516296 -8.93900032043457 197.34006378173822 -10.578311538696287H198.5800424289703L197.495480890274 -8.93900032043457Z M201.10409399032588 0.0 204.0055963134765 -8.1484375H205.53552051544185L208.48613177299495 0.0H207.13842335700983L205.5510582542419 -4.533168506622314Q205.36588746070856 -5.085945510864257 205.14500506877894 -5.834614181518554Q204.92412267684932 -6.583282852172851 204.63416911125177 -7.632188701629638H204.88616686820978Q204.60266638755792 -6.5743140220642085 204.38320559024805 -5.816676521301269Q204.1637447929382 -5.0590390205383295 203.99399591445916 -4.533168506622314L202.45486522674554 0.0ZM202.67624679565424 -2.1470364570617675V-3.188718509674072H206.91397896766657V-2.1470364570617675Z"/></svg>