<svg xmlns="http://www.w3.org/2000/svg" viewBox="0 0 120 120" width="120" height="120" role="img" aria-label="Nando Muiño"><path d="M104.6,39.9 A52,22 -34 1 1 70.9,29.7" fill="none" stroke="#EFE9DF" stroke-width="3.0" stroke-linecap="round"/><path d="M79.7,27 A52,22 -34 0 1 104.7,35.3" fill="none" stroke="#B5674A" stroke-width="3.0" stroke-linecap="round"/><rect x="-3.1" y="-2.1" width="6.2" height="4.2" rx="1.8" fill="#EFE9DF" transform="translate(60.3 19.5) rotate(27.6)"/><rect x="-3.8" y="-2.6" width="7.6" height="5.1" rx="2.1" fill="#EFE9DF" transform="translate(55.5 30.9) rotate(13.3)"/><rect x="-4.5" y="-3" width="8.9" height="6" rx="2.5" fill="#EFE9DF" transform="translate(56.2 43.1) rotate(-14.1)"/><rect x="-5.1" y="-3.5" width="10.2" height="6.9" rx="2.9" fill="#EFE9DF" transform="translate(60 56) rotate(-16.3)"/><rect x="-5.8" y="-3.9" width="11.6" height="7.8" rx="3.3" fill="#EFE9DF" transform="translate(64.7 67.8) rotate(-21.7)"/><rect x="-6.5" y="-4.3" width="12.9" height="8.7" rx="3.7" fill="#EFE9DF" transform="translate(66.7 81.2) rotate(7.9)"/><rect x="-7.2" y="-4.8" width="14.3" height="9.6" rx="4" fill="#EFE9DF" transform="translate(62 98) rotate(19.3)"/></svg>